<svg xmlns="http://www.w3.org/2000/svg" viewBox="0 0 1024 1024"><path d="M783.872 121.6l0.725333 8.277333A468.736 468.736 0 0 1 981.333333 512c0 259.2-210.133333 469.333333-469.333333 469.333333S42.666667 771.2 42.666667 512 252.8 42.666667 512 42.666667c64.341333 0 125.653333 12.928 181.504 36.394666-75.178667 35.541333-135.381333 51.285333-290.474667 64.512-56.789333 2.304-69.248 26.538667-37.333333 72.746667l4.053333 5.632 195.541334 338.773333A236.245333 236.245333 0 0 0 512 554.666667c-117.802667 0-213.333333 85.973333-213.333333 192S394.197333 938.666667 512 938.666667s213.333333-85.973333 213.333333-192c0-25.770667-5.632-50.389333-15.829333-72.832l-4.650667-9.514667-1.749333-3.114667-1.621333-2.858666-1.706667-2.858667L512 328.661333l15.872-10.538666c99.072-67.370667 169.386667-139.008 210.944-214.869334 18.56-38.698667 28.288-60.416 29.098667-65.194666 0.938667-5.12 10.666667 23.338667 15.957333 83.541333z" fill="#31C27C"/></svg>